<svg xmlns="http://www.w3.org/2000/svg" viewBox="0 0 32 32">
  <defs>
    <linearGradient id="bg" x1="0" y1="0" x2="32" y2="32" gradientUnits="userSpaceOnUse">
      <stop offset="0%" stop-color="#1a2e22"/>
      <stop offset="100%" stop-color="#0c1610"/>
    </linearGradient>
    <radialGradient id="glow" cx="8" cy="6" r="18" gradientUnits="userSpaceOnUse">
      <stop offset="0%" stop-color="#5d8a6a" stop-opacity="0.28"/>
      <stop offset="100%" stop-color="#5d8a6a" stop-opacity="0"/>
    </radialGradient>
    <linearGradient id="b1" x1="5" y1="5" x2="16" y2="15" gradientUnits="userSpaceOnUse">
      <stop offset="0%" stop-color="#6fa07d"/>
      <stop offset="100%" stop-color="#4a7358"/>
    </linearGradient>
    <linearGradient id="b2" x1="18" y1="5" x2="27" y2="12" gradientUnits="userSpaceOnUse">
      <stop offset="0%" stop-color="#3d5c47" stop-opacity="0.9"/>
      <stop offset="100%" stop-color="#2c3a32" stop-opacity="0.7"/>
    </linearGradient>
    <linearGradient id="b3" x1="5" y1="18" x2="12" y2="27" gradientUnits="userSpaceOnUse">
      <stop offset="0%" stop-color="#3d5c47" stop-opacity="0.7"/>
      <stop offset="100%" stop-color="#2c3a32" stop-opacity="0.5"/>
    </linearGradient>
    <linearGradient id="b4" x1="18" y1="18" x2="27" y2="27" gradientUnits="userSpaceOnUse">
      <stop offset="0%" stop-color="#4a7358" stop-opacity="0.55"/>
      <stop offset="100%" stop-color="#2c3a32" stop-opacity="0.3"/>
    </linearGradient>
    <linearGradient id="spec" x1="4" y1="0" x2="28" y2="0" gradientUnits="userSpaceOnUse">
      <stop offset="0%" stop-color="white" stop-opacity="0"/>
      <stop offset="40%" stop-color="white" stop-opacity="0.18"/>
      <stop offset="100%" stop-color="white" stop-opacity="0"/>
    </linearGradient>
    <clipPath id="clip">
      <rect width="32" height="32" rx="8"/>
    </clipPath>
  </defs>
  <rect width="32" height="32" rx="8" fill="url(#bg)"/>
  <g clip-path="url(#clip)">
    <rect width="32" height="32" fill="url(#glow)"/>
    <line x1="15.5" y1="4" x2="15.5" y2="28" stroke="#1a2e22" stroke-width="1.5"/>
    <line x1="4" y1="15.5" x2="28" y2="15.5" stroke="#1a2e22" stroke-width="1.5"/>
    <rect x="5" y="5" width="9" height="9" rx="2" fill="url(#b1)"/>
    <rect x="5" y="5" width="9" height="2.5" rx="2" fill="white" fill-opacity="0.12"/>
    <rect x="17" y="5" width="10" height="9" rx="2" fill="url(#b2)"/>
    <rect x="5" y="17" width="9" height="10" rx="2" fill="url(#b3)"/>
    <rect x="17" y="17" width="10" height="10" rx="2" fill="url(#b4)"/>
    <rect x="0" y="0" width="32" height="1.5" fill="url(#spec)"/>
    <rect x="0.5" y="0.5" width="31" height="31" rx="7.5" stroke="white" stroke-opacity="0.1" stroke-width="1" fill="none"/>
  </g>
</svg>
